# xmcd
#
# Track frame offsets:
#	150
#	12198
#	22548
#	33845
#	41862
#	51075
#	61053
#	74736
#	86622
#	97447
#	110541
#	123182
#	131984
#	143876
#	154781
#	166545
#	177541
#	189953
#	203757
#	215058
#	232440
#	243652
#	259676
#	271947
#	295365
#	310214
#
# Disc length: 4311 seconds
#
# Revision: 0
# Processed by: cddbd v1.5.2PL0 Copyright (c) Steve Scherf et al.
# Submitted via: EasyCDDAExtractor 2010.6.0.0
#
DISCID=8410d51a
DTITLE=Various Artist - I'll Do Anything: The Doris Troy Anthology
DYEAR=1900
DGENRE=Soul
TTITLE0=Doris Troy - I'll Do Anything (He Wants Me To Do)
TTITLE1=Doris Troy - Face Up To The Truth
TTITLE2=Doris Troy - Just One Look
TTITLE3=Doris Troy - What'cha Gonna Do About It
TTITLE4=Jay and Dee - What A Night, Night, Night
TTITLE5=Doris Payne - You Better Mind
TTITLE6=Doris Payne - What A Wonderful Lover
TTITLE7=Chuck Jackson With Doris Troy - Tell Him I'm Not Home
TTITLE8=Doris Troy - Tomorrow Is Another Day
TTITLE9=Doris Troy - Lazy Days (When Are You Coming Home)
TTITLE10=Doris Troy - Time
TTITLE11=Doris Troy - But I Love Him
TTITLE12=Doris Troy - Please Little Angel
TTITLE13=Doris Troy - One More Chance
TTITLE14=Chuck Jackson With Doris Troy - Beg Me
TTITLE15=Doris Troy - Hurry
TTITLE16=Doris Troy - He Don't Belong To Me
TTITLE17=Doris Troy - Heartaches
TTITLE18=Doris Troy - He's Qualified
TTITLE19=Doris Troy - Ain't That Cute
TTITLE20=Doris Troy - You Tore Me Up Inside
TTITLE21=Doris Troy - Don't Tell Your Mama
TTITLE22=Doris Troy - Can't Hold On
TTITLE23=Doris Troy With Vy Higginsen - Smilin'/Let Me Make Love To You (Medle
TTITLE23=y)
TTITLE24=James Hunter With Doris Troy - Hear Me Calling
TTITLE25=Doris Troy - Take My Hand, Precious Lord
EXTD=
EXTT0=
EXTT1=
EXTT2=
EXTT3=
EXTT4=
EXTT5=
EXTT6=
EXTT7=
EXTT8=
EXTT9=
EXTT10=
EXTT11=
EXTT12=
EXTT13=
EXTT14=
EXTT15=
EXTT16=
EXTT17=
EXTT18=
EXTT19=
EXTT20=
EXTT21=
EXTT22=
EXTT23=
EXTT24=
EXTT25=
PLAYORDER=
